0
SECTION
2
HEADER
9
$INSUNITS
70
4
9
$ACADVER
1
AC1014
9
$HANDSEED
5
FFFF
0
ENDSEC
0
SECTION
2
TABLES
0
TABLE
2
VPORT
5
8
100
AcDbSymbolTable
0
ENDTAB
0
TABLE
2
LTYPE
5
5
100
AcDbSymbolTable
70
2
0
LTYPE
5
14
100
AcDbSymbolTableRecord
100
AcDbLinetypeTableRecord
2
BYBLOCK
70
0
0
LTYPE
5
15
100
AcDbSymbolTableRecord
100
AcDbLinetypeTableRecord
2
BYLAYER
70
0
0
ENDTAB
0
TABLE
2
LAYER
5
2
100
AcDbSymbolTable
70
3
0
LAYER
5
50
100
AcDbSymbolTableRecord
100
AcDbLayerTableRecord
2
0
70
0
6
CONTINUOUS
0
LAYER
5
51
100
AcDbSymbolTableRecord
100
AcDbLayerTableRecord
2
CUTOUTS
70
0
62
1
6
CONTINUOUS
0
LAYER
5
52
100
AcDbSymbolTableRecord
100
AcDbLayerTableRecord
2
PERIMETER
70
0
62
5
6
CONTINUOUS
0
ENDTAB
0
TABLE
2
STYLE
5
3
100
AcDbSymbolTable
70
1
0
STYLE
5
11
100
AcDbSymbolTableRecord
100
AcDbTextStyleTableRecord
2
STANDARD
70
0
0
ENDTAB
0
TABLE
2
VIEW
5
6
100
AcDbSymbolTable
0
ENDTAB
0
TABLE
2
UCS
5
7
100
AcDbSymbolTable
0
ENDTAB
0
TABLE
2
APPID
5
9
100
AcDbSymbolTable
70
1
0
APPID
5
12
100
AcDbSymbolTableRecord
100
AcDbRegAppTableRecord
2
ACAD
70
0
0
ENDTAB
0
TABLE
2
DIMSTYLE
5
A
100
AcDbSymbolTable
0
ENDTAB
0
TABLE
2
BLOCK_RECORD
5
1
100
AcDbSymbolTable
70
2
0
BLOCK_RECORD
5
1F
100
AcDbSymbolTableRecord
100
AcDbBlockTableRecord
2
*MODEL_SPACE
0
BLOCK_RECORD
5
1B
100
AcDbSymbolTableRecord
100
AcDbBlockTableRecord
2
*PAPER_SPACE
0
ENDTAB
0
ENDSEC
0
SECTION
2
BLOCKS
0
BLOCK
5
20
100
AcDbEntity
100
AcDbBlockBegin
2
*MODEL_SPACE
0
ENDBLK
5
21
100
AcDbEntity
100
AcDbBlockEnd
0
BLOCK
5
1C
100
AcDbEntity
100
AcDbBlockBegin
2
*PAPER_SPACE
0
ENDBLK
5
1D
100
AcDbEntity
100
AcDbBlockEnd
0
ENDSEC
0
SECTION
2
ENTITIES
0
LINE
5
100
100
AcDbEntity
8
CUTOUTS
100
AcDbLine
10
10.224999818205834
20
45.425001907348694
30
0
11
10.224999818205834
21
-45.425001907348673
31
1.0587911840678754e-21
0
LINE
5
101
100
AcDbEntity
8
CUTOUTS
100
AcDbLine
10
10.224999818205834
20
-45.425001907348673
30
1.7763568394002505e-14
11
8.8749997586011826
21
-45.425001907348673
31
1.7763568394002505e-14
0
LINE
5
102
100
AcDbEntity
8
CUTOUTS
100
AcDbLine
10
8.8749997586011826
20
-45.425001907348673
30
1.7763568394002505e-14
11
8.8749997586011826
21
45.425001907348694
31
1.7763567335211321e-14
0
LINE
5
103
100
AcDbEntity
8
CUTOUTS
100
AcDbLine
10
8.8749997586011826
20
45.425001907348694
30
0
11
10.224999818205834
21
45.425001907348694
31
1.175494350822295e-37
0
LINE
5
104
100
AcDbEntity
8
CUTOUTS
100
AcDbLine
10
-7.9250003129243884
20
18.054048534344773
30
0
11
-7.9250003129243911
21
19.895934681138652
31
0
0
LINE
5
105
100
AcDbEntity
8
CUTOUTS
100
AcDbLine
10
-7.9250003129243911
20
19.895934681138652
30
0
11
0.92499982118605883
21
16.945934636435176
31
3.3087224502121107e-23
0
LINE
5
106
100
AcDbEntity
8
CUTOUTS
100
AcDbLine
10
0.92499982118605883
20
16.945934636435183
30
0
11
0.92499982118605883
21
15.104048489641295
31
0
0
LINE
5
107
100
AcDbEntity
8
CUTOUTS
100
AcDbLine
10
0.92499982118605883
20
15.104048489641286
30
0
11
-7.9250003129243884
21
18.054048534344773
31
-3.3087224502121107e-23
0
LINE
5
108
100
AcDbEntity
8
CUTOUTS
100
AcDbLine
10
-7.9250003129243911
20
12.054048444937804
30
0
11
-7.9250003129243911
21
13.895934591731693
31
0
0
LINE
5
109
100
AcDbEntity
8
CUTOUTS
100
AcDbLine
10
-7.9250003129243911
20
13.895934591731685
30
1.7763568394002505e-14
11
0.92499982118605883
21
10.9459345470282
31
1.7763568427089729e-14
0
LINE
5
10A
100
AcDbEntity
8
CUTOUTS
100
AcDbLine
10
0.92499982118605883
20
10.945934547028209
30
0
11
0.92499982118605883
21
9.1040484002343014
31
0
0
LINE
5
10B
100
AcDbEntity
8
CUTOUTS
100
AcDbLine
10
0.92499982118605883
20
9.1040484002342925
30
0
11
-7.9250003129243911
21
12.054048444937795
31
-3.3087224502121107e-23
0
LINE
5
10C
100
AcDbEntity
8
CUTOUTS
100
AcDbLine
10
-7.9250003129243884
20
6.0540484449378074
30
1.7763568394002505e-14
11
-7.9250003129243911
21
7.8959345917317147
31
1.7763568394002505e-14
0
LINE
5
10D
100
AcDbEntity
8
CUTOUTS
100
AcDbLine
10
-7.9250003129243911
20
7.8959345917317147
30
0
11
0.92499982118605883
21
4.9459345470282221
31
0
0
LINE
5
10E
100
AcDbEntity
8
CUTOUTS
100
AcDbLine
10
0.92499982118605883
20
4.9459345470282212
30
1.7763568394002505e-14
11
0.92499982118605883
21
3.1040484002343316
31
1.7763568394002505e-14
0
LINE
5
10F
100
AcDbEntity
8
CUTOUTS
100
AcDbLine
10
0.92499982118605883
20
3.1040484002343316
30
0
11
-7.9250003129243884
21
6.0540484449378074
31
-3.3087224502121107e-23
0
LINE
5
110
100
AcDbEntity
8
CUTOUTS
100
AcDbLine
10
0.92499982118605661
20
-1.054065452971793
30
1.7763568394002505e-14
11
0.92499982118605883
21
-2.8959515997656826
31
1.7763568394002505e-14
0
LINE
5
111
100
AcDbEntity
8
CUTOUTS
100
AcDbLine
10
0.92499982118605883
20
-2.8959515997656826
30
1.7763568394002505e-14
11
-7.9250003129243911
21
0.054048444937810358
31
1.7763568394002505e-14
0
LINE
5
112
100
AcDbEntity
8
CUTOUTS
100
AcDbLine
10
-7.9250003129243911
20
0.054048444937819795
30
0
11
-7.9250003129243911
21
1.895934591731727
31
0
0
LINE
5
113
100
AcDbEntity
8
CUTOUTS
100
AcDbLine
10
-7.9250003129243911
20
1.8959345917317183
30
0
11
0.92499982118605661
21
-1.0540654529717925
31
3.3087224502121107e-23
0
LINE
5
114
100
AcDbEntity
8
CUTOUTS
100
AcDbLine
10
-7.9250003129243973
20
-23.945951555062198
30
0
11
-7.9250003129243947
21
-22.104065408268283
31
0
0
LINE
5
115
100
AcDbEntity
8
CUTOUTS
100
AcDbLine
10
-7.9250003129243947
20
-22.10406540826828
30
0
11
0.92499982118606328
21
-25.054065452971766
31
3.3087224502121107e-23
0
LINE
5
116
100
AcDbEntity
8
CUTOUTS
100
AcDbLine
10
0.92499982118606328
20
-25.05406545297177
30
0
11
0.92499982118606328
21
-26.895951599765677
31
0
0
LINE
5
117
100
AcDbEntity
8
CUTOUTS
100
AcDbLine
10
0.92499982118606328
20
-26.895951599765681
30
0
11
-7.9250003129243973
21
-23.945951555062202
31
-3.3087224502121107e-23
0
LINE
5
118
100
AcDbEntity
8
CUTOUTS
100
AcDbLine
10
-7.9250003129243973
20
-17.945951555062194
30
0
11
-7.9250003129243947
21
-16.104065408268291
31
0
0
LINE
5
119
100
AcDbEntity
8
CUTOUTS
100
AcDbLine
10
-7.9250003129243947
20
-16.104065408268291
30
0
11
0.92499982118606328
21
-19.054065452971763
31
3.3087224502121107e-23
0
LINE
5
11A
100
AcDbEntity
8
CUTOUTS
100
AcDbLine
10
0.92499982118606328
20
-19.054065452971759
30
0
11
0.92499982118606328
21
-20.895951599765674
31
0
0
LINE
5
11B
100
AcDbEntity
8
CUTOUTS
100
AcDbLine
10
0.92499982118606328
20
-20.895951599765667
30
0
11
-7.9250003129243973
21
-17.945951555062187
31
-3.3087224502121107e-23
0
LINE
5
11C
100
AcDbEntity
8
CUTOUTS
100
AcDbLine
10
-7.9250003129243973
20
-5.94595155506219
30
0
11
-7.9250003129243947
21
-4.1040654082682693
31
0
0
LINE
5
11D
100
AcDbEntity
8
CUTOUTS
100
AcDbLine
10
-7.9250003129243947
20
-4.1040654082682693
30
0
11
0.92499982118606328
21
-7.0540654529717539
31
3.3087224502121107e-23
0
LINE
5
11E
100
AcDbEntity
8
CUTOUTS
100
AcDbLine
10
0.92499982118606328
20
-7.0540654529717539
30
0
11
0.92499982118606328
21
-8.8959515997656702
31
3.3087224502121107e-23
0
LINE
5
11F
100
AcDbEntity
8
CUTOUTS
100
AcDbLine
10
0.92499982118606328
20
-8.8959515997656737
30
0
11
-7.9250003129243973
21
-5.9459515550621944
31
-3.3087224502121107e-23
0
LINE
5
120
100
AcDbEntity
8
CUTOUTS
100
AcDbLine
10
-7.9250003129243973
20
-11.945951555062194
30
0
11
-7.9250003129243947
21
-10.104065408268283
31
0
0
LINE
5
121
100
AcDbEntity
8
CUTOUTS
100
AcDbLine
10
-7.9250003129243947
20
-10.104065408268287
30
0
11
0.92499982118606328
21
-13.054065452971777
31
3.3087224502121107e-23
0
LINE
5
122
100
AcDbEntity
8
CUTOUTS
100
AcDbLine
10
0.92499982118606328
20
-13.054065452971777
30
0
11
0.92499982118606328
21
-14.895951599765681
31
0
0
LINE
5
123
100
AcDbEntity
8
CUTOUTS
100
AcDbLine
10
0.92499982118606328
20
-14.895951599765681
30
0
11
-7.9250003129243973
21
-11.9459515550622
31
-3.3087224502121107e-23
0
LINE
5
124
100
AcDbEntity
8
CUTOUTS
100
AcDbLine
10
-7.9250003129243947
20
30.054048713158696
30
0
11
-7.9250003129243911
21
31.895934859952597
31
0
0
LINE
5
125
100
AcDbEntity
8
CUTOUTS
100
AcDbLine
10
-7.9250003129243911
20
31.895934859952597
30
0
11
0.92499982118605772
21
28.945934815249103
31
0
0
LINE
5
126
100
AcDbEntity
8
CUTOUTS
100
AcDbLine
10
0.92499982118605772
20
28.945934815249103
30
0
11
0.92499982118605772
21
27.104048668455203
31
0
0
LINE
5
127
100
AcDbEntity
8
CUTOUTS
100
AcDbLine
10
0.92499982118605772
20
27.104048668455203
30
0
11
-7.9250003129243947
21
30.054048713158696
31
0
0
LINE
5
128
100
AcDbEntity
8
CUTOUTS
100
AcDbLine
10
0.92499982118606661
20
33.104048757862195
30
1.7763568394002505e-14
11
-7.9250003129243973
21
36.054048802565674
31
1.776356836091528e-14
0
LINE
5
129
100
AcDbEntity
8
CUTOUTS
100
AcDbLine
10
-7.9250003129243973
20
36.054048802565674
30
0
11
-7.9250003129243973
21
37.895934949359564
31
0
0
LINE
5
12A
100
AcDbEntity
8
CUTOUTS
100
AcDbLine
10
-7.9250003129243973
20
37.895934949359543
30
0
11
0.92499982118606661
21
34.94593490465607
31
3.3087224502121107e-23
0
LINE
5
12B
100
AcDbEntity
8
CUTOUTS
100
AcDbLine
10
0.92499982118606661
20
34.945934904656077
30
0
11
0.92499982118606661
21
33.104048757862188
31
0
0
LINE
5
12C
100
AcDbEntity
8
CUTOUTS
100
AcDbLine
10
-10.075000342726717
20
30.074991771654496
30
0
11
-11.9250003700995
21
30.074991771654489
31
0
0
LINE
5
12D
100
AcDbEntity
8
CUTOUTS
100
AcDbLine
10
-11.9250003700995
20
30.074991771654489
30
0
11
-11.925000002429545
21
41.42500190734868
31
-1.3234889800848443e-22
0
LINE
5
12E
100
AcDbEntity
8
CUTOUTS
100
AcDbLine
10
-11.925000002429545
20
41.425001907348687
30
0
11
-10.075000342726717
21
41.425001907348687
31
2.9387358770557229e-38
0
LINE
5
12F
100
AcDbEntity
8
CUTOUTS
100
AcDbLine
10
-10.075000342726717
20
41.425001907348687
30
0
11
-10.075000342726717
21
30.074991771654503
31
1.3234889800848443e-22
0
LINE
5
130
100
AcDbEntity
8
CUTOUTS
100
AcDbLine
10
-11.925000372529034
20
10.074991473631272
30
0
11
-11.925000372529034
21
19.924991622642878
31
-1.3234889800848443e-22
0
LINE
5
131
100
AcDbEntity
8
CUTOUTS
100
AcDbLine
10
-11.925000372529034
20
19.924991622642871
30
0
11
-10.075000342726719
21
19.924991622642871
31
0
0
LINE
5
132
100
AcDbEntity
8
CUTOUTS
100
AcDbLine
10
-10.075000342726719
20
19.924991622642871
30
0
11
-10.075000342726719
21
10.074991473631254
31
1.3234889800848443e-22
0
LINE
5
133
100
AcDbEntity
8
CUTOUTS
100
AcDbLine
10
-10.075000342726719
20
10.074991473631263
30
0
11
-11.925000372529034
21
10.074991473631272
31
0
0
LINE
5
134
100
AcDbEntity
8
CUTOUTS
100
AcDbLine
10
-10.075000342726717
20
-19.925008973403582
30
0
11
-11.925000372529036
21
-19.925008973403578
31
-3.1636609023885269e-30
0
LINE
5
135
100
AcDbEntity
8
CUTOUTS
100
AcDbLine
10
-11.925000372529036
20
-19.925008973403578
30
0
11
-11.925000372529036
21
-10.075008824391958
31
-1.3234889800848443e-22
0
LINE
5
136
100
AcDbEntity
8
CUTOUTS
100
AcDbLine
10
-11.925000372529036
20
-10.075008824391961
30
1.7763568394002505e-14
11
-10.075000342726717
21
-10.075008824391967
31
1.7763568394002508e-14
0
LINE
5
137
100
AcDbEntity
8
CUTOUTS
100
AcDbLine
10
-10.075000342726717
20
-10.075008824391967
30
1.7763568394002505e-14
11
-10.075000342726717
21
-19.925008973403585
31
1.7763568526351403e-14
0
LINE
5
138
100
AcDbEntity
8
CUTOUTS
100
AcDbLine
10
-10.075000342726717
20
-41.42500190734868
30
0
11
-11.925000002429549
21
-41.42500190734868
31
-1.4693679385278594e-38
0
LINE
5
139
100
AcDbEntity
8
CUTOUTS
100
AcDbLine
10
-11.925000002429549
20
-41.42500190734868
30
0
11
-11.925000370099497
21
-30.075009122415199
31
-1.3234889800848443e-22
0
LINE
5
13A
100
AcDbEntity
8
CUTOUTS
100
AcDbLine
10
-11.925000370099497
20
-30.075009122415199
30
0
11
-10.075000342726717
21
-30.075009122415199
31
0
0
LINE
5
13B
100
AcDbEntity
8
CUTOUTS
100
AcDbLine
10
-10.075000342726717
20
-30.075009122415203
30
0
11
-10.075000342726717
21
-41.42500190734868
31
1.3234889800848443e-22
0
LINE
5
13C
100
AcDbEntity
8
CUTOUTS
100
AcDbLine
10
5.6749998301267528
20
-45.425001907348687
30
1.7763568394002505e-14
11
5.6749998301267528
21
45.425001907348687
31
1.7763567335211321e-14
0
LINE
5
13D
100
AcDbEntity
8
CUTOUTS
100
AcDbLine
10
5.6749998301267528
20
45.425001907348694
30
0
11
7.0250001877546229
21
45.425001907348694
31
1.175494350822295e-37
0
LINE
5
13E
100
AcDbEntity
8
CUTOUTS
100
AcDbLine
10
7.0250001877546229
20
45.425001907348694
30
0
11
7.025000187754622
21
-45.425001907348673
31
1.0587911840678754e-21
0
LINE
5
13F
100
AcDbEntity
8
CUTOUTS
100
AcDbLine
10
7.025000187754622
20
-45.425001907348673
30
1.7763568394002505e-14
11
5.6749998301267528
21
-45.425001907348687
31
1.7763568394002505e-14
0
LINE
5
140
100
AcDbEntity
8
CUTOUTS
100
AcDbLine
10
0.92499982118605772
20
22.94593472584215
30
0
11
0.92499982118605883
21
21.104048579048236
31
3.3087224502121107e-23
0
LINE
5
141
100
AcDbEntity
8
CUTOUTS
100
AcDbLine
10
0.92499982118605883
20
21.104048579048246
30
0
11
-7.9250003129243911
21
24.054048623751729
31
-3.3087224502121107e-23
0
LINE
5
142
100
AcDbEntity
8
CUTOUTS
100
AcDbLine
10
-7.9250003129243911
20
24.054048623751719
30
0
11
-7.9250003129243911
21
25.895934770545619
31
0
0
LINE
5
143
100
AcDbEntity
8
CUTOUTS
100
AcDbLine
10
-7.9250003129243911
20
25.89593477054563
30
0
11
0.92499982118605772
21
22.945934725842161
31
3.3087224502121107e-23
0
LINE
5
144
100
AcDbEntity
8
CUTOUTS
100
AcDbLine
10
-7.9250003129243929
20
-29.945951555062187
30
0
11
-7.9250003129243929
21
-28.104065408268287
31
0
0
LINE
5
145
100
AcDbEntity
8
CUTOUTS
100
AcDbLine
10
-7.9250003129243929
20
-28.104065408268287
30
0
11
0.92499982118606106
21
-31.05406545297177
31
3.3087224502121107e-23
0
LINE
5
146
100
AcDbEntity
8
CUTOUTS
100
AcDbLine
10
0.92499982118606106
20
-31.054065452971777
30
0
11
0.92499982118606106
21
-32.895951599765681
31
0
0
LINE
5
147
100
AcDbEntity
8
CUTOUTS
100
AcDbLine
10
0.92499982118606106
20
-32.895951599765674
30
0
11
-7.9250003129243929
21
-29.945951555062187
31
-3.3087224502121107e-23
0
LINE
5
148
100
AcDbEntity
8
CUTOUTS
100
AcDbLine
10
0.92499982118606106
20
-38.895951599765681
30
0
11
-7.9250003129243929
21
-35.945951555062194
31
-3.3087224502121107e-23
0
LINE
5
149
100
AcDbEntity
8
CUTOUTS
100
AcDbLine
10
-7.9250003129243929
20
-35.945951555062187
30
0
11
-7.9250003129243929
21
-34.104065408268283
31
0
0
LINE
5
14A
100
AcDbEntity
8
CUTOUTS
100
AcDbLine
10
-7.9250003129243929
20
-34.104065408268283
30
0
11
0.92499982118606217
21
-37.054065452971777
31
3.3087224502121107e-23
0
LINE
5
14B
100
AcDbEntity
8
CUTOUTS
100
AcDbLine
10
0.92499982118606217
20
-37.054065452971777
30
0
11
0.92499982118606106
21
-38.895951599765674
31
3.3087224502121107e-23
0
LINE
5
14C
100
AcDbEntity
8
PERIMETER
100
AcDbLine
10
-4.0750002533197431
20
-45.575001907348678
30
1.7763568394002505e-14
11
-4.0750002533197431
21
-48.575001907348678
31
1.7763568427089729e-14
0
LINE
5
14D
100
AcDbEntity
8
PERIMETER
100
AcDbLine
10
-4.0750002533197431
20
-48.575001907348678
30
1.7763568394002505e-14
11
-0.92500020861626453
21
-48.575001907348678
31
1.7763568394002505e-14
0
LINE
5
14E
100
AcDbEntity
8
PERIMETER
100
AcDbLine
10
-0.92500020861626453
20
-48.575001907348678
30
1.7763568394002505e-14
11
-0.92500020861626231
21
-45.575001907348678
31
1.776356836091528e-14
0
LINE
5
14F
100
AcDbEntity
8
PERIMETER
100
AcDbLine
10
-0.92500020861626231
20
-45.575001907348678
30
1.7763568394002505e-14
11
1.9249998360872267
21
-45.575001907348678
31
1.7763568394002505e-14
0
LINE
5
150
100
AcDbEntity
8
PERIMETER
100
AcDbLine
10
1.9249998360872267
20
-45.575001907348678
30
1.7763568394002505e-14
11
1.9249998360872267
21
-48.575001907348678
31
1.7763568427089729e-14
0
LINE
5
151
100
AcDbEntity
8
PERIMETER
100
AcDbLine
10
1.9249998360872267
20
-48.575001907348678
30
1.7763568394002505e-14
11
13.074999999999999
21
-48.575001907348678
31
1.7763568394002505e-14
0
LINE
5
152
100
AcDbEntity
8
PERIMETER
100
AcDbLine
10
13.074999999999999
20
-48.575001907348678
30
1.7763568394002505e-14
11
13.074999999999999
21
48.575001907348664
31
1.7763568394002505e-14
0
LINE
5
153
100
AcDbEntity
8
PERIMETER
100
AcDbLine
10
13.074999999999999
20
48.575001907348636
30
0
11
1.9249998360872267
21
48.57500190734865
31
0
0
LINE
5
154
100
AcDbEntity
8
PERIMETER
100
AcDbLine
10
1.9249998360872267
20
48.57500190734865
30
0
11
1.9249998360872267
21
45.575001907348664
31
3.3087224502121107e-23
0
LINE
5
155
100
AcDbEntity
8
PERIMETER
100
AcDbLine
10
1.9249998360872267
20
45.575001907348678
30
0
11
-0.92500020861626231
21
45.5750019073487
31
0
0
LINE
5
156
100
AcDbEntity
8
PERIMETER
100
AcDbLine
10
-0.92500020861626231
20
45.5750019073487
30
0
11
-0.92500020861626231
21
48.575001907348685
31
-3.3087224502121107e-23
0
LINE
5
157
100
AcDbEntity
8
PERIMETER
100
AcDbLine
10
-0.92500020861626231
20
48.575001907348671
30
0
11
-4.0750002533197431
21
48.57500190734865
31
0
0
LINE
5
158
100
AcDbEntity
8
PERIMETER
100
AcDbLine
10
-4.0750002533197431
20
48.57500190734865
30
0
11
-4.0750002533197431
21
45.575001907348664
31
3.3087224502121107e-23
0
LINE
5
159
100
AcDbEntity
8
PERIMETER
100
AcDbLine
10
-4.0750002533197431
20
45.575001907348678
30
0
11
-6.9250002980232335
21
45.5750019073487
31
0
0
LINE
5
15A
100
AcDbEntity
8
PERIMETER
100
AcDbLine
10
-6.9250002980232335
20
45.5750019073487
30
0
11
-6.9250002980232335
21
48.575001907348685
31
-3.3087224502121107e-23
0
LINE
5
15B
100
AcDbEntity
8
PERIMETER
100
AcDbLine
10
-6.9250002980232335
20
48.575001907348671
30
0
11
-10.075000342726714
21
48.57500190734865
31
0
0
LINE
5
15C
100
AcDbEntity
8
PERIMETER
100
AcDbLine
10
-10.075000342726714
20
48.57500190734865
30
0
11
-10.075000342726714
21
45.575001907348664
31
3.3087224502121107e-23
0
LINE
5
15D
100
AcDbEntity
8
PERIMETER
100
AcDbLine
10
-10.075000342726714
20
45.575001907348678
30
0
11
-13.075000000000006
21
45.5750019073487
31
0
0
LINE
5
15E
100
AcDbEntity
8
PERIMETER
100
AcDbLine
10
-13.075000000000006
20
45.5750019073487
30
0
11
-13.075000000000006
21
-45.575001907348678
31
1.0587911840678754e-21
0
LINE
5
15F
100
AcDbEntity
8
PERIMETER
100
AcDbLine
10
-13.075000000000006
20
-45.575001907348671
30
1.7763568394002505e-14
11
-10.075000342726714
21
-45.575001907348671
31
1.7763568394002505e-14
0
LINE
5
160
100
AcDbEntity
8
PERIMETER
100
AcDbLine
10
-10.075000342726714
20
-45.575001907348678
30
1.7763568394002505e-14
11
-10.075000342726714
21
-48.575001907348678
31
1.7763568427089729e-14
0
LINE
5
161
100
AcDbEntity
8
PERIMETER
100
AcDbLine
10
-10.075000342726714
20
-48.575001907348678
30
1.7763568394002505e-14
11
-6.9250002980232335
21
-48.575001907348678
31
1.7763568394002505e-14
0
LINE
5
162
100
AcDbEntity
8
PERIMETER
100
AcDbLine
10
-6.9250002980232335
20
-48.575001907348678
30
1.7763568394002505e-14
11
-6.9250002980232335
21
-45.575001907348678
31
1.776356836091528e-14
0
LINE
5
163
100
AcDbEntity
8
PERIMETER
100
AcDbLine
10
-6.9250002980232335
20
-45.575001907348678
30
1.7763568394002505e-14
11
-4.0750002533197431
21
-45.575001907348678
31
1.7763568394002505e-14
0
ENDSEC
0
SECTION
2
OBJECTS
0
DICTIONARY
5
C
100
AcDbDictionary
3
ACAD_GROUP
350
D
3
ACAD_MLINESTYLE
350
17
0
DICTIONARY
5
D
100
AcDbDictionary
0
DICTIONARY
5
1A
330
C
100
AcDbDictionary
0
DICTIONARY
5
17
100
AcDbDictionary
0
ENDSEC
0
EOF
