0
SECTION
2
HEADER
9
$INSUNITS
70
4
9
$ACADVER
1
AC1014
9
$HANDSEED
5
FFFF
0
ENDSEC
0
SECTION
2
TABLES
0
TABLE
2
VPORT
5
8
100
AcDbSymbolTable
0
ENDTAB
0
TABLE
2
LTYPE
5
5
100
AcDbSymbolTable
70
2
0
LTYPE
5
14
100
AcDbSymbolTableRecord
100
AcDbLinetypeTableRecord
2
BYBLOCK
70
0
0
LTYPE
5
15
100
AcDbSymbolTableRecord
100
AcDbLinetypeTableRecord
2
BYLAYER
70
0
0
ENDTAB
0
TABLE
2
LAYER
5
2
100
AcDbSymbolTable
70
3
0
LAYER
5
50
100
AcDbSymbolTableRecord
100
AcDbLayerTableRecord
2
0
70
0
6
CONTINUOUS
0
LAYER
5
51
100
AcDbSymbolTableRecord
100
AcDbLayerTableRecord
2
CUTOUTS
70
0
62
1
6
CONTINUOUS
0
LAYER
5
52
100
AcDbSymbolTableRecord
100
AcDbLayerTableRecord
2
PERIMETER
70
0
62
5
6
CONTINUOUS
0
ENDTAB
0
TABLE
2
STYLE
5
3
100
AcDbSymbolTable
70
1
0
STYLE
5
11
100
AcDbSymbolTableRecord
100
AcDbTextStyleTableRecord
2
STANDARD
70
0
0
ENDTAB
0
TABLE
2
VIEW
5
6
100
AcDbSymbolTable
0
ENDTAB
0
TABLE
2
UCS
5
7
100
AcDbSymbolTable
0
ENDTAB
0
TABLE
2
APPID
5
9
100
AcDbSymbolTable
70
1
0
APPID
5
12
100
AcDbSymbolTableRecord
100
AcDbRegAppTableRecord
2
ACAD
70
0
0
ENDTAB
0
TABLE
2
DIMSTYLE
5
A
100
AcDbSymbolTable
0
ENDTAB
0
TABLE
2
BLOCK_RECORD
5
1
100
AcDbSymbolTable
70
2
0
BLOCK_RECORD
5
1F
100
AcDbSymbolTableRecord
100
AcDbBlockTableRecord
2
*MODEL_SPACE
0
BLOCK_RECORD
5
1B
100
AcDbSymbolTableRecord
100
AcDbBlockTableRecord
2
*PAPER_SPACE
0
ENDTAB
0
ENDSEC
0
SECTION
2
BLOCKS
0
BLOCK
5
20
100
AcDbEntity
100
AcDbBlockBegin
2
*MODEL_SPACE
0
ENDBLK
5
21
100
AcDbEntity
100
AcDbBlockEnd
0
BLOCK
5
1C
100
AcDbEntity
100
AcDbBlockBegin
2
*PAPER_SPACE
0
ENDBLK
5
1D
100
AcDbEntity
100
AcDbBlockEnd
0
ENDSEC
0
SECTION
2
ENTITIES
0
LINE
5
100
100
AcDbEntity
8
PERIMETER
100
AcDbLine
10
48.074999871781017
20
-9.9239653816530904
30
0
11
48.075001558817362
21
9.9249907773598878
31
0
0
LINE
5
101
100
AcDbEntity
8
PERIMETER
100
AcDbLine
10
48.075001558817362
20
9.9249907773598878
30
0
11
51.075002415128978
21
9.9249907773598878
31
0
0
LINE
5
102
100
AcDbEntity
8
PERIMETER
100
AcDbLine
10
51.075002415128978
20
9.9249907773598878
30
0
11
51.075002415128978
21
20.074990926371477
31
0
0
LINE
5
103
100
AcDbEntity
8
PERIMETER
100
AcDbLine
10
51.075002415128978
20
20.074990926371477
30
0
11
48.075002421503498
21
20.074990926371477
31
0
0
LINE
5
104
100
AcDbEntity
8
PERIMETER
100
AcDbLine
10
48.075002421503498
20
20.074990926371477
30
0
11
48.075003258691538
21
29.924991273003172
31
0
0
LINE
5
105
100
AcDbEntity
8
PERIMETER
100
AcDbLine
10
48.075003258691538
20
29.924991273003172
30
0
11
51.075004242494543
21
29.92499917782192
31
0
0
LINE
5
106
100
AcDbEntity
8
PERIMETER
100
AcDbLine
10
51.075004242494543
20
29.92499917782192
30
0
11
51.075004242494543
21
41.5750012110772
31
0
0
LINE
5
107
100
AcDbEntity
8
PERIMETER
100
AcDbLine
10
51.075004242494543
20
41.5750012110772
30
0
11
48.074915103880393
21
41.5750012110772
31
0
0
LINE
5
108
100
AcDbEntity
8
PERIMETER
100
AcDbLine
10
48.074915103880393
20
41.5750012110772
30
0
11
48.07015821483197
21
45.575002161134037
31
0
0
LINE
5
109
100
AcDbEntity
8
PERIMETER
100
AcDbLine
10
48.07015821483197
20
45.575002161134037
30
0
11
-48.074997188016575
21
45.575002161134037
31
0
0
LINE
5
10A
100
AcDbEntity
8
PERIMETER
100
AcDbLine
10
-48.074997188016575
20
45.575002161134037
30
0
11
-48.074997188016575
21
41.575009370473111
31
0
0
LINE
5
10B
100
AcDbEntity
8
PERIMETER
100
AcDbLine
10
-48.074997188016575
20
41.575009370473111
30
0
11
-51.074997181642054
21
41.575009370473111
31
0
0
LINE
5
10C
100
AcDbEntity
8
PERIMETER
100
AcDbLine
10
-51.074997181642054
20
41.575009370473111
30
0
11
-51.074998171819594
21
29.924999234778966
31
0
0
LINE
5
10D
100
AcDbEntity
8
PERIMETER
100
AcDbLine
10
-51.074998171819594
20
29.924999234778966
30
0
11
-48.074998171819587
21
29.924999234778966
31
0
0
LINE
5
10E
100
AcDbEntity
8
PERIMETER
100
AcDbLine
10
-48.074998171819587
20
29.924999234778966
30
0
11
-48.074999009007612
21
20.074999085767395
31
0
0
LINE
5
10F
100
AcDbEntity
8
PERIMETER
100
AcDbLine
10
-48.074999009007612
20
20.074999085767395
30
0
11
-51.075002415130449
21
20.074999085767395
31
0
0
LINE
5
110
100
AcDbEntity
8
PERIMETER
100
AcDbLine
10
-51.075002415130449
20
20.074999085767395
30
0
11
-51.075002415130449
21
9.9249986758141251
31
0
0
LINE
5
111
100
AcDbEntity
8
PERIMETER
100
AcDbLine
10
-51.075002415130449
20
9.9249986758141251
30
0
11
-48.074999871693748
21
9.9249989303913821
31
0
0
LINE
5
112
100
AcDbEntity
8
PERIMETER
100
AcDbLine
10
-48.074999871693748
20
9.9249989303913821
30
0
11
-48.075001558818833
21
-9.9250013676317739
31
0
0
LINE
5
113
100
AcDbEntity
8
PERIMETER
100
AcDbLine
10
-48.075001558818833
20
-9.9250013676317739
30
0
11
-51.075002415130449
21
-9.9250016222090931
31
0
0
LINE
5
114
100
AcDbEntity
8
PERIMETER
100
AcDbLine
10
-51.075002415130449
20
-9.9250016222090931
30
0
11
-51.075002415130449
21
-20.075001510278927
31
0
0
LINE
5
115
100
AcDbEntity
8
PERIMETER
100
AcDbLine
10
-51.075002415130449
20
-20.075001510278927
30
0
11
-48.075002421504969
21
-20.075001510278927
31
0
0
LINE
5
116
100
AcDbEntity
8
PERIMETER
100
AcDbLine
10
-48.075002421504969
20
-20.075001510278927
30
0
11
-48.075003258692995
21
-29.925001659290498
31
0
0
LINE
5
117
100
AcDbEntity
8
PERIMETER
100
AcDbLine
10
-48.075003258692995
20
-29.925001659290498
30
0
11
-51.075003258693002
21
-29.925001659290498
31
0
0
LINE
5
118
100
AcDbEntity
8
PERIMETER
100
AcDbLine
10
-51.075003258693002
20
-29.925001659290498
30
0
11
-51.075004248869071
21
-41.574994444223933
31
0
0
LINE
5
119
100
AcDbEntity
8
PERIMETER
100
AcDbLine
10
-51.075004248869071
20
-41.574994444223933
30
0
11
-48.07509335249992
21
-41.574994444223933
31
0
0
LINE
5
11A
100
AcDbEntity
8
PERIMETER
100
AcDbLine
10
-48.07509335249992
20
-41.574994444223933
30
0
11
-48.079843075312041
21
-45.575002161134037
31
0
0
LINE
5
11B
100
AcDbEntity
8
PERIMETER
100
AcDbLine
10
-48.079843075312041
20
-45.575002161134037
30
0
11
48.074997188016575
21
-45.575002161134037
31
0
0
LINE
5
11C
100
AcDbEntity
8
PERIMETER
100
AcDbLine
10
48.074997188016575
20
-45.575002161134037
30
0
11
48.074997188016575
21
-41.575002603619886
31
0
0
LINE
5
11D
100
AcDbEntity
8
PERIMETER
100
AcDbLine
10
48.074997188016575
20
-41.575002603619886
30
0
11
51.074997181642054
21
-41.575002603619886
31
0
0
LINE
5
11E
100
AcDbEntity
8
PERIMETER
100
AcDbLine
10
51.074997181642054
20
-41.575002603619886
30
0
11
51.074998171818116
21
-29.925009818686441
31
0
0
LINE
5
11F
100
AcDbEntity
8
PERIMETER
100
AcDbLine
10
51.074998171818116
20
-29.925009818686441
30
0
11
48.074998171818109
21
-29.925009818686441
31
0
0
LINE
5
120
100
AcDbEntity
8
PERIMETER
100
AcDbLine
10
48.074998171818109
20
-29.925009818686441
30
0
11
48.074999009006135
21
-20.075009676049387
31
0
0
LINE
5
121
100
AcDbEntity
8
PERIMETER
100
AcDbLine
10
48.074999009006135
20
-20.075009676049387
30
0
11
51.074997188016582
21
-20.075009931030348
31
0
0
LINE
5
122
100
AcDbEntity
8
PERIMETER
100
AcDbLine
10
51.074997188016582
20
-20.075009931030348
30
0
11
51.074997188016582
21
-9.8824865969996125
31
0
0
LINE
5
123
100
AcDbEntity
8
PERIMETER
100
AcDbLine
10
51.074997188016582
20
-9.8824865969996125
30
0
11
48.074999871781017
21
-9.9239653816530904
31
0
0
ENDSEC
0
SECTION
2
OBJECTS
0
DICTIONARY
5
C
100
AcDbDictionary
3
ACAD_GROUP
350
D
3
ACAD_MLINESTYLE
350
17
0
DICTIONARY
5
D
100
AcDbDictionary
0
DICTIONARY
5
1A
330
C
100
AcDbDictionary
0
DICTIONARY
5
17
100
AcDbDictionary
0
ENDSEC
0
EOF
