0
SECTION
2
HEADER
9
$INSUNITS
70
4
9
$ACADVER
1
AC1014
9
$HANDSEED
5
FFFF
0
ENDSEC
0
SECTION
2
TABLES
0
TABLE
2
VPORT
5
8
100
AcDbSymbolTable
0
ENDTAB
0
TABLE
2
LTYPE
5
5
100
AcDbSymbolTable
70
2
0
LTYPE
5
14
100
AcDbSymbolTableRecord
100
AcDbLinetypeTableRecord
2
BYBLOCK
70
0
0
LTYPE
5
15
100
AcDbSymbolTableRecord
100
AcDbLinetypeTableRecord
2
BYLAYER
70
0
0
ENDTAB
0
TABLE
2
LAYER
5
2
100
AcDbSymbolTable
70
3
0
LAYER
5
50
100
AcDbSymbolTableRecord
100
AcDbLayerTableRecord
2
0
70
0
6
CONTINUOUS
0
LAYER
5
51
100
AcDbSymbolTableRecord
100
AcDbLayerTableRecord
2
CUTOUTS
70
0
62
1
6
CONTINUOUS
0
LAYER
5
52
100
AcDbSymbolTableRecord
100
AcDbLayerTableRecord
2
PERIMETER
70
0
62
5
6
CONTINUOUS
0
ENDTAB
0
TABLE
2
STYLE
5
3
100
AcDbSymbolTable
70
1
0
STYLE
5
11
100
AcDbSymbolTableRecord
100
AcDbTextStyleTableRecord
2
STANDARD
70
0
0
ENDTAB
0
TABLE
2
VIEW
5
6
100
AcDbSymbolTable
0
ENDTAB
0
TABLE
2
UCS
5
7
100
AcDbSymbolTable
0
ENDTAB
0
TABLE
2
APPID
5
9
100
AcDbSymbolTable
70
1
0
APPID
5
12
100
AcDbSymbolTableRecord
100
AcDbRegAppTableRecord
2
ACAD
70
0
0
ENDTAB
0
TABLE
2
DIMSTYLE
5
A
100
AcDbSymbolTable
0
ENDTAB
0
TABLE
2
BLOCK_RECORD
5
1
100
AcDbSymbolTable
70
2
0
BLOCK_RECORD
5
1F
100
AcDbSymbolTableRecord
100
AcDbBlockTableRecord
2
*MODEL_SPACE
0
BLOCK_RECORD
5
1B
100
AcDbSymbolTableRecord
100
AcDbBlockTableRecord
2
*PAPER_SPACE
0
ENDTAB
0
ENDSEC
0
SECTION
2
BLOCKS
0
BLOCK
5
20
100
AcDbEntity
100
AcDbBlockBegin
2
*MODEL_SPACE
0
ENDBLK
5
21
100
AcDbEntity
100
AcDbBlockEnd
0
BLOCK
5
1C
100
AcDbEntity
100
AcDbBlockBegin
2
*PAPER_SPACE
0
ENDBLK
5
1D
100
AcDbEntity
100
AcDbBlockEnd
0
ENDSEC
0
SECTION
2
ENTITIES
0
CIRCLE
5
100
100
AcDbEntity
8
CUTOUTS
100
AcDbCircle
10
-38.850006406523008
20
-1.4000002071261364
30
-5.5511151231257827e-16
40
4.9250000000000016
210
0
220
0
230
1
0
LINE
5
101
100
AcDbEntity
8
CUTOUTS
100
AcDbLine
10
25.424997492191483
20
-7.3250003114342643
30
0
11
9.0749974921914838
21
-7.3250003114342643
31
0
0
LINE
5
102
100
AcDbEntity
8
CUTOUTS
100
AcDbLine
10
9.0749974921914855
20
-7.3250003114342643
30
0
11
9.0749974921914855
21
0.024999688565739975
31
0
0
LINE
5
103
100
AcDbEntity
8
CUTOUTS
100
AcDbLine
10
9.0749974921914855
20
0.024999688565739975
30
0
11
25.424997492191483
21
0.024999688565739975
31
0
0
LINE
5
104
100
AcDbEntity
8
CUTOUTS
100
AcDbLine
10
25.424997492191483
20
0.024999688565739975
30
0
11
25.424997492191483
21
-7.3250003114342643
31
0
0
LINE
5
105
100
AcDbEntity
8
CUTOUTS
100
AcDbLine
10
44.074997492191457
20
-7.3250003114342626
30
-5.5511151231257827e-16
11
26.324997492191507
21
-7.3250003114342626
31
-5.5511124761478225e-16
0
LINE
5
106
100
AcDbEntity
8
CUTOUTS
100
AcDbLine
10
26.3249974921915
20
-7.3250003114342626
30
0
11
26.3249974921915
21
8.0249996885657389
31
4.8148248609681196e-34
0
LINE
5
107
100
AcDbEntity
8
CUTOUTS
100
AcDbLine
10
26.3249974921915
20
8.0249996885657389
30
0
11
44.074997492191471
21
8.0249996885657389
31
0
0
LINE
5
108
100
AcDbEntity
8
CUTOUTS
100
AcDbLine
10
44.074997492191478
20
8.0249996885657389
30
-5.5511151231257827e-16
11
44.074997492191457
21
-7.3250003114342626
31
-5.5511151231257827e-16
0
LINE
5
109
100
AcDbEntity
8
CUTOUTS
100
AcDbLine
10
-10.125003219231967
20
10.025000031292404
30
0
11
4.97499678076802
21
10.025000031292404
31
0
0
LINE
5
10A
100
AcDbEntity
8
CUTOUTS
100
AcDbLine
10
4.9749967807680218
20
10.025000031292404
30
0
11
4.9749967807680218
21
-7.3249999687076013
31
-6.1629758220392554e-32
0
LINE
5
10B
100
AcDbEntity
8
CUTOUTS
100
AcDbLine
10
4.9749967807680218
20
-7.3249999687076013
30
0
11
-10.125003219231965
21
-7.3249999687076013
31
0
0
LINE
5
10C
100
AcDbEntity
8
CUTOUTS
100
AcDbLine
10
-10.125003219231967
20
-7.3249999687076013
30
0
11
-10.125003219231967
21
10.025000031292404
31
6.162975822039193e-32
0
LINE
5
10D
100
AcDbEntity
8
CUTOUTS
100
AcDbLine
10
-13.275003219231966
20
10.025000031292404
30
5.5511151231257827e-16
11
-13.275003219231966
21
-7.3249999687076013
31
5.5511151231257837e-16
0
LINE
5
10E
100
AcDbEntity
8
CUTOUTS
100
AcDbLine
10
-13.275003219231966
20
-7.3249999687076013
30
5.5511151231257827e-16
11
-28.375003219231971
21
-7.3249999687076013
31
5.5511177701037429e-16
0
LINE
5
10F
100
AcDbEntity
8
CUTOUTS
100
AcDbLine
10
-28.375003219231971
20
-7.3249999687076013
30
0
11
-28.375003219231971
21
10.025000031292404
31
-6.1629758220392554e-32
0
LINE
5
110
100
AcDbEntity
8
CUTOUTS
100
AcDbLine
10
-28.375003219231971
20
10.025000031292404
30
0
11
-13.275003219231969
21
10.025000031292404
31
-2.6469779601696886e-22
0
LINE
5
111
100
AcDbEntity
8
PERIMETER
100
AcDbLine
10
48.079750252347957
20
-13.075000186264509
30
-5.5511151231257827e-16
11
48.079750252347885
21
-2.1716321155428919
31
-5.5511151231257847e-16
0
LINE
5
112
100
AcDbEntity
8
PERIMETER
100
AcDbLine
10
48.079750252347885
20
-2.1716321155428919
30
-5.5511151231257827e-16
11
51.075000759959195
21
-2.1716321155428786
31
-5.5511154539980277e-16
0
LINE
5
113
100
AcDbEntity
8
PERIMETER
100
AcDbLine
10
51.075000759959195
20
-2.1716321155428786
30
-5.5511151231257827e-16
11
51.075000759959195
21
1.0750000223517486
31
-5.5511151231257837e-16
0
LINE
5
114
100
AcDbEntity
8
PERIMETER
100
AcDbLine
10
51.075000759959195
20
1.0750000223517486
30
-5.5511151231257827e-16
11
48.079750252347935
21
1.0750000223517486
31
-5.5511147922535377e-16
0
LINE
5
115
100
AcDbEntity
8
PERIMETER
100
AcDbLine
10
48.079750252347935
20
1.0750000223517486
30
-5.5511151231257827e-16
11
48.079750252347935
21
3.9250000670552332
31
-5.5511151231257817e-16
0
LINE
5
116
100
AcDbEntity
8
PERIMETER
100
AcDbLine
10
48.079750252347935
20
3.9250000670552332
30
-5.5511151231257827e-16
11
51.075000759959195
21
3.9250000670552332
31
-5.5511154539980277e-16
0
LINE
5
117
100
AcDbEntity
8
PERIMETER
100
AcDbLine
10
51.075000759959195
20
3.9250000670552332
30
-5.5511151231257827e-16
11
51.075000759959195
21
7.0750001117587136
31
-5.5511151231257837e-16
0
LINE
5
118
100
AcDbEntity
8
PERIMETER
100
AcDbLine
10
51.075000759959195
20
7.0750001117587136
30
-5.5511151231257827e-16
11
48.079750252347935
21
7.0750001117587136
31
-5.5511147922535377e-16
0
LINE
5
119
100
AcDbEntity
8
PERIMETER
100
AcDbLine
10
48.079750252347935
20
7.0750001117587136
30
-5.5511151231257827e-16
11
48.079750252347935
21
9.9250001564622039
31
-5.5511151231257817e-16
0
LINE
5
11A
100
AcDbEntity
8
PERIMETER
100
AcDbLine
10
48.079750252347935
20
9.9250001564622039
30
-5.5511151231257827e-16
11
51.07500076306853
21
9.9250001564622039
31
-5.5511154539980277e-16
0
LINE
5
11B
100
AcDbEntity
8
PERIMETER
100
AcDbLine
10
51.07500076306853
20
9.9250001564622039
30
-5.5511151231257827e-16
11
51.075000632476623
21
13.075000186264514
31
-5.5511151231257433e-16
0
LINE
5
11C
100
AcDbEntity
8
PERIMETER
100
AcDbLine
10
51.075000632476623
20
13.075000186264514
30
-5.5511151231257827e-16
11
-51.075000759959231
21
13.075000186264514
31
-5.551104535213942e-16
0
LINE
5
11D
100
AcDbEntity
8
PERIMETER
100
AcDbLine
10
-51.07500075995921
20
13.075000186264514
30
0
11
-51.07500075995921
21
9.9250001564622039
31
7.810498745641763e-32
0
LINE
5
11E
100
AcDbEntity
8
PERIMETER
100
AcDbLine
10
-51.075000759959217
20
9.9250001564622039
30
0
11
-48.075000715255747
21
9.9250001564622039
31
0
0
LINE
5
11F
100
AcDbEntity
8
PERIMETER
100
AcDbLine
10
-48.075000715255747
20
9.9250001564622039
30
0
11
-48.075000715255747
21
7.0750001117587136
31
0
0
LINE
5
120
100
AcDbEntity
8
PERIMETER
100
AcDbLine
10
-48.075000715255747
20
7.0750001117587136
30
0
11
-51.075000759959217
21
7.0750001117587136
31
0
0
LINE
5
121
100
AcDbEntity
8
PERIMETER
100
AcDbLine
10
-51.075000759959217
20
7.0750001117587136
30
0
11
-51.075000759959217
21
3.9250000670552332
31
0
0
LINE
5
122
100
AcDbEntity
8
PERIMETER
100
AcDbLine
10
-51.075000759959217
20
3.9250000670552332
30
0
11
-48.075000715255747
21
3.9250000670552332
31
0
0
LINE
5
123
100
AcDbEntity
8
PERIMETER
100
AcDbLine
10
-48.075000715255747
20
3.9250000670552332
30
0
11
-48.075000715255747
21
1.0750000223517486
31
0
0
LINE
5
124
100
AcDbEntity
8
PERIMETER
100
AcDbLine
10
-48.075000715255747
20
1.0750000223517486
30
0
11
-51.075000759959217
21
1.0750000223517486
31
0
0
LINE
5
125
100
AcDbEntity
8
PERIMETER
100
AcDbLine
10
-51.075000759959217
20
1.0750000223517486
30
0
11
-51.075000759959217
21
-2.075000022351734
31
0
0
LINE
5
126
100
AcDbEntity
8
PERIMETER
100
AcDbLine
10
-51.075000759959217
20
-2.075000022351734
30
0
11
-48.075000715255747
21
-2.075000022351734
31
0
0
LINE
5
127
100
AcDbEntity
8
PERIMETER
100
AcDbLine
10
-48.075000715255747
20
-2.075000022351734
30
0
11
-48.075000715255747
21
-13.075000186264509
31
-1.1479437019749089e-40
0
LINE
5
128
100
AcDbEntity
8
PERIMETER
100
AcDbLine
10
-48.075000715255747
20
-13.075000186264509
30
0
11
48.079750252347957
21
-13.075000186264509
31
-1.0587911840678754e-21
0
ENDSEC
0
SECTION
2
OBJECTS
0
DICTIONARY
5
C
100
AcDbDictionary
3
ACAD_GROUP
350
D
3
ACAD_MLINESTYLE
350
17
0
DICTIONARY
5
D
100
AcDbDictionary
0
DICTIONARY
5
1A
330
C
100
AcDbDictionary
0
DICTIONARY
5
17
100
AcDbDictionary
0
ENDSEC
0
EOF
