0
SECTION
2
HEADER
9
$INSUNITS
70
4
9
$ACADVER
1
AC1014
9
$HANDSEED
5
FFFF
0
ENDSEC
0
SECTION
2
TABLES
0
TABLE
2
VPORT
5
8
100
AcDbSymbolTable
0
ENDTAB
0
TABLE
2
LTYPE
5
5
100
AcDbSymbolTable
70
2
0
LTYPE
5
14
100
AcDbSymbolTableRecord
100
AcDbLinetypeTableRecord
2
BYBLOCK
70
0
0
LTYPE
5
15
100
AcDbSymbolTableRecord
100
AcDbLinetypeTableRecord
2
BYLAYER
70
0
0
ENDTAB
0
TABLE
2
LAYER
5
2
100
AcDbSymbolTable
70
3
0
LAYER
5
50
100
AcDbSymbolTableRecord
100
AcDbLayerTableRecord
2
0
70
0
6
CONTINUOUS
0
LAYER
5
51
100
AcDbSymbolTableRecord
100
AcDbLayerTableRecord
2
CUTOUTS
70
0
62
1
6
CONTINUOUS
0
LAYER
5
52
100
AcDbSymbolTableRecord
100
AcDbLayerTableRecord
2
PERIMETER
70
0
62
5
6
CONTINUOUS
0
ENDTAB
0
TABLE
2
STYLE
5
3
100
AcDbSymbolTable
70
1
0
STYLE
5
11
100
AcDbSymbolTableRecord
100
AcDbTextStyleTableRecord
2
STANDARD
70
0
0
ENDTAB
0
TABLE
2
VIEW
5
6
100
AcDbSymbolTable
0
ENDTAB
0
TABLE
2
UCS
5
7
100
AcDbSymbolTable
0
ENDTAB
0
TABLE
2
APPID
5
9
100
AcDbSymbolTable
70
1
0
APPID
5
12
100
AcDbSymbolTableRecord
100
AcDbRegAppTableRecord
2
ACAD
70
0
0
ENDTAB
0
TABLE
2
DIMSTYLE
5
A
100
AcDbSymbolTable
0
ENDTAB
0
TABLE
2
BLOCK_RECORD
5
1
100
AcDbSymbolTable
70
2
0
BLOCK_RECORD
5
1F
100
AcDbSymbolTableRecord
100
AcDbBlockTableRecord
2
*MODEL_SPACE
0
BLOCK_RECORD
5
1B
100
AcDbSymbolTableRecord
100
AcDbBlockTableRecord
2
*PAPER_SPACE
0
ENDTAB
0
ENDSEC
0
SECTION
2
BLOCKS
0
BLOCK
5
20
100
AcDbEntity
100
AcDbBlockBegin
2
*MODEL_SPACE
0
ENDBLK
5
21
100
AcDbEntity
100
AcDbBlockEnd
0
BLOCK
5
1C
100
AcDbEntity
100
AcDbBlockBegin
2
*PAPER_SPACE
0
ENDBLK
5
1D
100
AcDbEntity
100
AcDbBlockEnd
0
ENDSEC
0
SECTION
2
ENTITIES
0
CIRCLE
5
100
100
AcDbEntity
8
CUTOUTS
100
AcDbCircle
10
18.350007713783903
20
-0.39999996870755727
30
0
40
3.9250000000000007
210
0
220
0
230
1
0
LINE
5
101
100
AcDbEntity
8
CUTOUTS
100
AcDbLine
10
-36.094993582912984
20
-2.4750000879168512
30
0
11
-27.744993582913004
21
-2.4750000879168512
31
-1.3234889800848443e-22
0
LINE
5
102
100
AcDbEntity
8
CUTOUTS
100
AcDbLine
10
-27.744993582913011
20
-2.4750000879168512
30
1.7763568394002505e-14
11
-27.744993582913011
21
-8.3250000879168464
31
1.7763568394002505e-14
0
LINE
5
103
100
AcDbEntity
8
CUTOUTS
100
AcDbLine
10
-27.744993582913011
20
-8.3250000879168464
30
1.7763568394002505e-14
11
-36.094993582912991
21
-8.3250000879168482
31
1.7763568526351403e-14
0
LINE
5
104
100
AcDbEntity
8
CUTOUTS
100
AcDbLine
10
-36.094993582912984
20
-8.3250000879168482
30
0
11
-36.094993582912984
21
-2.4750000879168512
31
0
0
LINE
5
105
100
AcDbEntity
8
CUTOUTS
100
AcDbLine
10
-23.274994312054833
20
-2.9750002071261408
30
0
11
-3.5249943120548455
21
-2.9750002071261408
31
-2.6469779601696886e-22
0
LINE
5
106
100
AcDbEntity
8
CUTOUTS
100
AcDbLine
10
-3.5249943120548366
20
-2.9750002071261408
30
0
11
-3.5249943120548366
21
-8.325000207126136
31
-7.7037197775489913e-33
0
LINE
5
107
100
AcDbEntity
8
CUTOUTS
100
AcDbLine
10
-3.5249943120548366
20
-8.325000207126136
30
0
11
-23.274994312054833
21
-8.325000207126136
31
2.6469779601696886e-22
0
LINE
5
108
100
AcDbEntity
8
CUTOUTS
100
AcDbLine
10
-23.274994312054844
20
-8.325000207126136
30
0
11
-23.274994312054833
21
-2.9750002071261408
31
3.6318844587299534e-30
0
LINE
5
109
100
AcDbEntity
8
CUTOUTS
100
AcDbLine
10
25.375006412556811
20
-7.3250001624226595
30
1.7763568394002505e-14
11
25.375006412556807
21
0.02499980777502353
31
1.7763568394002505e-14
0
LINE
5
10A
100
AcDbEntity
8
CUTOUTS
100
AcDbLine
10
25.375006412556807
20
0.02499980777502353
30
1.7763568394002505e-14
11
38.725007992079838
21
0.02499980777502353
31
1.7763568394002505e-14
0
LINE
5
10B
100
AcDbEntity
8
CUTOUTS
100
AcDbLine
10
38.725007992079838
20
0.02499980777502353
30
0
11
38.725007992079846
21
-7.3250001624226577
31
-2.9387358770557188e-38
0
LINE
5
10C
100
AcDbEntity
8
CUTOUTS
100
AcDbLine
10
38.725007992079846
20
-7.3250001624226577
30
0
11
25.375006412556811
21
-7.3250001624226595
31
0
0
LINE
5
10D
100
AcDbEntity
8
PERIMETER
100
AcDbLine
10
48.070251178163588
20
-7.1724270108212664
30
0
11
48.075000715255769
21
-7.1722611519330801
31
-6.4623485355705287e-26
0
LINE
5
10E
100
AcDbEntity
8
PERIMETER
100
AcDbLine
10
48.075000715255769
20
-7.1722611519330801
30
1.7763568394002505e-14
11
48.075000715255769
21
-2.0750000223517429
31
1.7763568394002505e-14
0
LINE
5
10F
100
AcDbEntity
8
PERIMETER
100
AcDbLine
10
48.075000715255769
20
-2.0750000223517429
30
1.7763568394002505e-14
11
51.075000759959259
21
-2.0750000223517429
31
1.7763568394002505e-14
0
LINE
5
110
100
AcDbEntity
8
PERIMETER
100
AcDbLine
10
51.075000759959252
20
-2.0750000223517429
30
1.7763568394002505e-14
11
51.075000759959252
21
1.0750000223517464
31
1.7763568394002505e-14
0
LINE
5
111
100
AcDbEntity
8
PERIMETER
100
AcDbLine
10
51.075000759959252
20
1.0750000223517464
30
1.7763568394002505e-14
11
48.075000715255754
21
1.0750000223517486
31
1.7763568394002505e-14
0
LINE
5
112
100
AcDbEntity
8
PERIMETER
100
AcDbLine
10
48.075000715255769
20
1.0750000223517486
30
1.7763568394002505e-14
11
48.075000715255769
21
3.9250000670552265
31
1.7763568394002505e-14
0
LINE
5
113
100
AcDbEntity
8
PERIMETER
100
AcDbLine
10
48.075000715255769
20
3.9250000670552265
30
1.7763568394002505e-14
11
51.075000759959259
21
3.9250000670552265
31
1.7763568394002505e-14
0
LINE
5
114
100
AcDbEntity
8
PERIMETER
100
AcDbLine
10
51.075000759959252
20
3.9250000670552265
30
1.7763568394002505e-14
11
51.075000759959252
21
7.0750001117587153
31
1.7763568394002505e-14
0
LINE
5
115
100
AcDbEntity
8
PERIMETER
100
AcDbLine
10
51.075000759959252
20
7.0750001117587153
30
1.7763568394002505e-14
11
48.075000715255754
21
7.0750001117587153
31
1.7763568394002505e-14
0
LINE
5
116
100
AcDbEntity
8
PERIMETER
100
AcDbLine
10
48.075000715255769
20
7.0750001117587153
30
1.7763568394002505e-14
11
48.075000715255769
21
9.9250001564621968
31
1.7763568394002505e-14
0
LINE
5
117
100
AcDbEntity
8
PERIMETER
100
AcDbLine
10
48.075000715255769
20
9.9250001564621968
30
1.7763568394002505e-14
11
51.075000759959259
21
9.9250001564621968
31
1.7763568394002505e-14
0
LINE
5
118
100
AcDbEntity
8
PERIMETER
100
AcDbLine
10
51.075000759959252
20
9.9250001564621968
30
1.7763568394002505e-14
11
51.075000759959252
21
13.075000186264514
31
1.7763568394002505e-14
0
LINE
5
119
100
AcDbEntity
8
PERIMETER
100
AcDbLine
10
51.075000759959252
20
13.075000186264514
30
1.7763568394002505e-14
11
-51.075000632476659
21
13.075000186264514
31
1.7763570511584873e-14
0
LINE
5
11A
100
AcDbEntity
8
PERIMETER
100
AcDbLine
10
-51.07500063247663
20
13.075000186264514
30
0
11
-51.075000763068545
21
9.9250001564621968
31
3.944304526105059e-30
0
LINE
5
11B
100
AcDbEntity
8
PERIMETER
100
AcDbLine
10
-51.075000763068545
20
9.9250001564621968
30
0
11
-48.079750252347964
21
9.9250001564621968
31
-6.6174449004242214e-23
0
LINE
5
11C
100
AcDbEntity
8
PERIMETER
100
AcDbLine
10
-48.079750252347978
20
9.9250001564621968
30
0
11
-48.079750252347999
21
7.0750001117587153
31
0
0
LINE
5
11D
100
AcDbEntity
8
PERIMETER
100
AcDbLine
10
-48.079750252347999
20
7.0750001117587153
30
0
11
-51.075000759959238
21
7.0750001117587153
31
6.6174449004242214e-23
0
LINE
5
11E
100
AcDbEntity
8
PERIMETER
100
AcDbLine
10
-51.075000759959224
20
7.0750001117587153
30
0
11
-51.07500075995921
21
3.9250000670552265
31
0
0
LINE
5
11F
100
AcDbEntity
8
PERIMETER
100
AcDbLine
10
-51.07500075995921
20
3.9250000670552265
30
0
11
-48.079750252347964
21
3.9250000670552265
31
-6.6174449004242214e-23
0
LINE
5
120
100
AcDbEntity
8
PERIMETER
100
AcDbLine
10
-48.079750252347978
20
3.9250000670552265
30
0
11
-48.079750252347999
21
1.0750000223517486
31
0
0
LINE
5
121
100
AcDbEntity
8
PERIMETER
100
AcDbLine
10
-48.079750252347999
20
1.0750000223517486
30
0
11
-51.075000759959238
21
1.0750000223517464
31
6.6174449004242214e-23
0
LINE
5
122
100
AcDbEntity
8
PERIMETER
100
AcDbLine
10
-51.075000759959224
20
1.0750000223517464
30
0
11
-51.07500075995921
21
-2.1716321155428875
31
0
0
LINE
5
123
100
AcDbEntity
8
PERIMETER
100
AcDbLine
10
-51.07500075995921
20
-2.1716321155428875
30
0
11
-48.079750252347893
21
-2.1716321155429008
31
-3.3087224502121107e-23
0
LINE
5
124
100
AcDbEntity
8
PERIMETER
100
AcDbLine
10
-48.079750252347907
20
-2.1716321155429008
30
0
11
-48.079750252347999
21
-13.075000186264518
31
0
0
LINE
5
125
100
AcDbEntity
8
PERIMETER
100
AcDbLine
10
-48.079750252347999
20
-13.075000186264518
30
0
11
48.07500071525574
21
-13.075000186264518
31
-1.0587911840678754e-21
0
LINE
5
126
100
AcDbEntity
8
PERIMETER
100
AcDbLine
10
48.075000715255754
20
-13.075000186264518
30
1.7763568394002505e-14
11
48.075000715255769
21
-8.7277391518032061
31
1.7763568394002505e-14
0
LINE
5
127
100
AcDbEntity
8
PERIMETER
100
AcDbLine
10
48.075000715255769
20
-8.7277391518032061
30
1.7763568394002505e-14
11
48.070251178163581
21
-8.7275732938478185
31
1.7763568394067128e-14
0
LINE
5
128
100
AcDbEntity
8
PERIMETER
100
AcDbLine
10
48.070251178163574
20
-8.7275732938478185
30
0
11
48.070251178163581
21
-7.1724270108212647
31
-1.1754943508222875e-37
0
ENDSEC
0
SECTION
2
OBJECTS
0
DICTIONARY
5
C
100
AcDbDictionary
3
ACAD_GROUP
350
D
3
ACAD_MLINESTYLE
350
17
0
DICTIONARY
5
D
100
AcDbDictionary
0
DICTIONARY
5
1A
330
C
100
AcDbDictionary
0
DICTIONARY
5
17
100
AcDbDictionary
0
ENDSEC
0
EOF
