0
SECTION
2
HEADER
9
$INSUNITS
70
4
9
$ACADVER
1
AC1014
9
$HANDSEED
5
FFFF
0
ENDSEC
0
SECTION
2
TABLES
0
TABLE
2
VPORT
5
8
100
AcDbSymbolTable
0
ENDTAB
0
TABLE
2
LTYPE
5
5
100
AcDbSymbolTable
70
2
0
LTYPE
5
14
100
AcDbSymbolTableRecord
100
AcDbLinetypeTableRecord
2
BYBLOCK
70
0
0
LTYPE
5
15
100
AcDbSymbolTableRecord
100
AcDbLinetypeTableRecord
2
BYLAYER
70
0
0
ENDTAB
0
TABLE
2
LAYER
5
2
100
AcDbSymbolTable
70
3
0
LAYER
5
50
100
AcDbSymbolTableRecord
100
AcDbLayerTableRecord
2
0
70
0
6
CONTINUOUS
0
LAYER
5
51
100
AcDbSymbolTableRecord
100
AcDbLayerTableRecord
2
CUTOUTS
70
0
62
1
6
CONTINUOUS
0
LAYER
5
52
100
AcDbSymbolTableRecord
100
AcDbLayerTableRecord
2
PERIMETER
70
0
62
5
6
CONTINUOUS
0
ENDTAB
0
TABLE
2
STYLE
5
3
100
AcDbSymbolTable
70
1
0
STYLE
5
11
100
AcDbSymbolTableRecord
100
AcDbTextStyleTableRecord
2
STANDARD
70
0
0
ENDTAB
0
TABLE
2
VIEW
5
6
100
AcDbSymbolTable
0
ENDTAB
0
TABLE
2
UCS
5
7
100
AcDbSymbolTable
0
ENDTAB
0
TABLE
2
APPID
5
9
100
AcDbSymbolTable
70
1
0
APPID
5
12
100
AcDbSymbolTableRecord
100
AcDbRegAppTableRecord
2
ACAD
70
0
0
ENDTAB
0
TABLE
2
DIMSTYLE
5
A
100
AcDbSymbolTable
0
ENDTAB
0
TABLE
2
BLOCK_RECORD
5
1
100
AcDbSymbolTable
70
2
0
BLOCK_RECORD
5
1F
100
AcDbSymbolTableRecord
100
AcDbBlockTableRecord
2
*MODEL_SPACE
0
BLOCK_RECORD
5
1B
100
AcDbSymbolTableRecord
100
AcDbBlockTableRecord
2
*PAPER_SPACE
0
ENDTAB
0
ENDSEC
0
SECTION
2
BLOCKS
0
BLOCK
5
20
100
AcDbEntity
100
AcDbBlockBegin
2
*MODEL_SPACE
0
ENDBLK
5
21
100
AcDbEntity
100
AcDbBlockEnd
0
BLOCK
5
1C
100
AcDbEntity
100
AcDbBlockBegin
2
*PAPER_SPACE
0
ENDBLK
5
1D
100
AcDbEntity
100
AcDbBlockEnd
0
ENDSEC
0
SECTION
2
ENTITIES
0
LINE
5
100
100
AcDbEntity
8
CUTOUTS
100
AcDbLine
10
-0.92499982118606772
20
-8.8959515997656737
30
1.1102230246251565e-15
11
-0.92499982118606772
21
-7.0540654529717628
31
1.1102230246251565e-15
0
LINE
5
101
100
AcDbEntity
8
CUTOUTS
100
AcDbLine
10
-0.92499982118606772
20
-7.0540654529717584
30
1.1102230246251565e-15
11
7.9250003129243876
21
-4.104065408268279
31
1.1102230610211039e-15
0
LINE
5
102
100
AcDbEntity
8
CUTOUTS
100
AcDbLine
10
7.9250003129243876
20
-4.1040654082682781
30
1.1102230246251565e-15
11
7.9250003129243876
21
-5.9459515550621855
31
1.1102230246251565e-15
0
LINE
5
103
100
AcDbEntity
8
CUTOUTS
100
AcDbLine
10
7.9250003129243876
20
-5.94595155506219
30
1.1102230246251565e-15
11
-0.92499982118606772
21
-8.8959515997656737
31
1.1102230213164337e-15
0
LINE
5
104
100
AcDbEntity
8
CUTOUTS
100
AcDbLine
10
7.9250003129243849
20
7.8959345917317059
30
1.1102230246251565e-15
11
7.9250003129243849
21
6.0540484449377985
31
1.1102230246251565e-15
0
LINE
5
105
100
AcDbEntity
8
CUTOUTS
100
AcDbLine
10
7.9250003129243849
20
6.0540484449377985
30
1.1102230246251565e-15
11
-0.92499982118606439
21
3.1040484002343143
31
1.1102230213164317e-15
0
LINE
5
106
100
AcDbEntity
8
CUTOUTS
100
AcDbLine
10
-0.92499982118606439
20
3.1040484002343138
30
1.1102230246251565e-15
11
-0.92499982118606439
21
4.9459345470282212
31
1.1102230246251565e-15
0
LINE
5
107
100
AcDbEntity
8
CUTOUTS
100
AcDbLine
10
-0.92499982118606439
20
4.9459345470282212
30
1.1102230246251565e-15
11
7.9250003129243849
21
7.8959345917317059
31
1.1102230279338814e-15
0
LINE
5
108
100
AcDbEntity
8
CUTOUTS
100
AcDbLine
10
-0.92499982118606106
20
-2.8959515997656737
30
1.1102230246251565e-15
11
-0.92499982118606328
21
-1.0540654529717843
31
1.1102230246251573e-15
0
LINE
5
109
100
AcDbEntity
8
CUTOUTS
100
AcDbLine
10
-0.92499982118606328
20
-1.0540654529717841
30
1.1102230246251565e-15
11
7.9250003129243831
21
1.8959345917317001
31
1.1102230279338827e-15
0
LINE
5
10A
100
AcDbEntity
8
CUTOUTS
100
AcDbLine
10
7.9250003129243831
20
1.8959345917317005
30
1.1102230246251565e-15
11
7.9250003129243831
21
0.054048444937802309
31
1.1102230246251565e-15
0
LINE
5
10B
100
AcDbEntity
8
CUTOUTS
100
AcDbLine
10
7.9250003129243831
20
0.054048444937810913
30
1.1102230246251565e-15
11
-0.92499982118606106
21
-2.8959515997656644
31
1.1102229882292049e-15
0
LINE
5
10C
100
AcDbEntity
8
CUTOUTS
100
AcDbLine
10
-0.9249998211860655
20
10.9459345470282
30
1.1102230246251565e-15
11
7.9250003129243849
21
13.895934591731676
31
1.1102230610211059e-15
0
LINE
5
10D
100
AcDbEntity
8
CUTOUTS
100
AcDbLine
10
7.9250003129243849
20
13.895934591731676
30
1.1102230246251565e-15
11
7.9250003129243849
21
12.054048444937786
31
1.1102230246251565e-15
0
LINE
5
10E
100
AcDbEntity
8
CUTOUTS
100
AcDbLine
10
7.9250003129243849
20
12.054048444937786
30
1.1102230246251565e-15
11
-0.92499982118606772
21
9.1040484002342925
31
1.1102229882292084e-15
0
LINE
5
10F
100
AcDbEntity
8
CUTOUTS
100
AcDbLine
10
-0.92499982118606772
20
9.1040484002342925
30
1.1102230246251565e-15
11
-0.9249998211860655
21
10.9459345470282
31
1.1102230246251558e-15
0
LINE
5
110
100
AcDbEntity
8
CUTOUTS
100
AcDbLine
10
-0.9249998211860655
20
16.945934636435169
30
2.2204460492503131e-15
11
7.9250003129243849
21
19.895934681138641
31
2.2204460856462624e-15
0
LINE
5
111
100
AcDbEntity
8
CUTOUTS
100
AcDbLine
10
7.9250003129243849
20
19.895934681138641
30
1.1102230246251565e-15
11
7.9250003129243849
21
18.054048534344751
31
1.1102230246251565e-15
0
LINE
5
112
100
AcDbEntity
8
CUTOUTS
100
AcDbLine
10
7.9250003129243849
20
18.054048534344751
30
1.1102230246251565e-15
11
-0.92499982118606772
21
15.10404848964126
31
1.1102229882292084e-15
0
LINE
5
113
100
AcDbEntity
8
CUTOUTS
100
AcDbLine
10
-0.92499982118606772
20
15.10404848964126
30
1.1102230246251565e-15
11
-0.9249998211860655
21
16.945934636435169
31
1.1102230246251558e-15
0
LINE
5
114
100
AcDbEntity
8
CUTOUTS
100
AcDbLine
10
-0.9249998211860655
20
22.945934725842143
30
2.2204460492503131e-15
11
7.9250003129243849
21
25.89593477054563
31
2.2204460525590379e-15
0
LINE
5
115
100
AcDbEntity
8
CUTOUTS
100
AcDbLine
10
7.9250003129243849
20
25.895934770545637
30
1.1102230246251565e-15
11
7.9250003129243849
21
24.054048623751719
31
1.1102230246251565e-15
0
LINE
5
116
100
AcDbEntity
8
CUTOUTS
100
AcDbLine
10
7.9250003129243849
20
24.054048623751711
30
1.1102230246251565e-15
11
-0.92499982118606439
21
21.104048579048246
31
1.1102229882292072e-15
0
LINE
5
117
100
AcDbEntity
8
CUTOUTS
100
AcDbLine
10
-0.92499982118606439
20
21.104048579048253
30
1.1102230246251565e-15
11
-0.9249998211860655
21
22.94593472584215
31
1.1102230246251569e-15
0
LINE
5
118
100
AcDbEntity
8
CUTOUTS
100
AcDbLine
10
-0.9249998211860655
20
27.104048668455203
30
1.1102230246251565e-15
11
-0.9249998211860655
21
28.945934815249093
31
1.1102230246251565e-15
0
LINE
5
119
100
AcDbEntity
8
CUTOUTS
100
AcDbLine
10
-0.9249998211860655
20
28.945934815249093
30
1.1102230246251565e-15
11
7.9250003129243849
21
31.895934859952586
31
1.1102230610211059e-15
0
LINE
5
11A
100
AcDbEntity
8
CUTOUTS
100
AcDbLine
10
7.9250003129243849
20
31.895934859952586
30
1.1102230246251565e-15
11
7.9250003129243849
21
30.054048713158679
31
1.1102230246251565e-15
0
LINE
5
11B
100
AcDbEntity
8
CUTOUTS
100
AcDbLine
10
7.9250003129243849
20
30.054048713158679
30
1.1102230246251565e-15
11
-0.9249998211860655
21
27.104048668455203
31
1.1102229882292072e-15
0
LINE
5
11C
100
AcDbEntity
8
CUTOUTS
100
AcDbLine
10
-0.92499982118606883
20
-20.895951599765667
30
1.1102230246251565e-15
11
-0.92499982118606883
21
-19.054065452971759
31
1.1102230246251565e-15
0
LINE
5
11D
100
AcDbEntity
8
CUTOUTS
100
AcDbLine
10
-0.92499982118606883
20
-19.054065452971763
30
1.1102230246251565e-15
11
7.9250003129243876
21
-16.10406540826828
31
1.1102230279338788e-15
0
LINE
5
11E
100
AcDbEntity
8
CUTOUTS
100
AcDbLine
10
7.9250003129243876
20
-16.10406540826828
30
1.1102230246251565e-15
11
7.9250003129243876
21
-17.945951555062191
31
1.1102230246251565e-15
0
LINE
5
11F
100
AcDbEntity
8
CUTOUTS
100
AcDbLine
10
7.9250003129243876
20
-17.945951555062191
30
1.1102230246251565e-15
11
-0.92499982118606883
21
-20.895951599765674
31
1.1102229882292098e-15
0
LINE
5
120
100
AcDbEntity
8
CUTOUTS
100
AcDbLine
10
-0.92499982118606772
20
-26.895951599765674
30
1.1102230246251565e-15
11
-0.92499982118606772
21
-25.054065452971763
31
1.1102230246251565e-15
0
LINE
5
121
100
AcDbEntity
8
CUTOUTS
100
AcDbLine
10
-0.92499982118606772
20
-25.054065452971763
30
1.1102230246251565e-15
11
7.9250003129243876
21
-22.104065408268276
31
1.1102230279338794e-15
0
LINE
5
122
100
AcDbEntity
8
CUTOUTS
100
AcDbLine
10
7.9250003129243876
20
-22.104065408268273
30
1.1102230246251565e-15
11
7.9250003129243876
21
-23.945951555062194
31
1.1102230246251565e-15
0
LINE
5
123
100
AcDbEntity
8
CUTOUTS
100
AcDbLine
10
7.9250003129243876
20
-23.945951555062198
30
1.1102230246251565e-15
11
-0.92499982118606772
21
-26.895951599765674
31
1.1102230213164337e-15
0
LINE
5
124
100
AcDbEntity
8
CUTOUTS
100
AcDbLine
10
-0.92499982118606661
20
-14.89595159976567
30
1.1102230246251565e-15
11
-0.92499982118606772
21
-13.054065452971768
31
1.1102230577123814e-15
0
LINE
5
125
100
AcDbEntity
8
CUTOUTS
100
AcDbLine
10
-0.92499982118606772
20
-13.054065452971768
30
1.1102230246251565e-15
11
7.9250003129243876
21
-10.104065408268283
31
1.1102230279338794e-15
0
LINE
5
126
100
AcDbEntity
8
CUTOUTS
100
AcDbLine
10
7.9250003129243876
20
-10.104065408268283
30
1.1102230246251565e-15
11
7.9250003129243876
21
-11.945951555062191
31
1.1102230246251565e-15
0
LINE
5
127
100
AcDbEntity
8
CUTOUTS
100
AcDbLine
10
7.9250003129243876
20
-11.945951555062187
30
1.1102230246251565e-15
11
-0.92499982118606661
21
-14.895951599765667
31
1.1102229882292088e-15
0
LINE
5
128
100
AcDbEntity
8
CUTOUTS
100
AcDbLine
10
-0.9249998211860655
20
-32.895951599765652
30
1.1102230246251565e-15
11
-0.9249998211860655
21
-31.054065452971763
31
1.110223057712381e-15
0
LINE
5
129
100
AcDbEntity
8
CUTOUTS
100
AcDbLine
10
-0.9249998211860655
20
-31.054065452971756
30
1.1102230246251565e-15
11
7.9250003129243849
21
-28.104065408268269
31
1.1102230610211059e-15
0
LINE
5
12A
100
AcDbEntity
8
CUTOUTS
100
AcDbLine
10
7.9250003129243849
20
-28.104065408268273
30
1.1102230246251565e-15
11
7.9250003129243849
21
-29.94595155506218
31
1.1102230246251565e-15
0
LINE
5
12B
100
AcDbEntity
8
CUTOUTS
100
AcDbLine
10
7.9250003129243849
20
-29.94595155506218
30
1.1102230246251565e-15
11
-0.9249998211860655
21
-32.895951599765652
31
1.1102230213164317e-15
0
LINE
5
12C
100
AcDbEntity
8
CUTOUTS
100
AcDbLine
10
-0.9249998211860655
20
-38.895951599765652
30
1.1102230246251565e-15
11
-0.9249998211860655
21
-37.054065452971756
31
1.1102230246251565e-15
0
LINE
5
12D
100
AcDbEntity
8
CUTOUTS
100
AcDbLine
10
-0.9249998211860655
20
-37.054065452971756
30
1.1102230246251565e-15
11
7.9250003129243849
21
-34.104065408268269
31
1.1102230279338814e-15
0
LINE
5
12E
100
AcDbEntity
8
CUTOUTS
100
AcDbLine
10
7.9250003129243849
20
-34.104065408268269
30
1.1102230246251565e-15
11
7.9250003129243849
21
-35.945951555062173
31
1.1102230246251565e-15
0
LINE
5
12F
100
AcDbEntity
8
CUTOUTS
100
AcDbLine
10
7.9250003129243849
20
-35.94595155506218
30
1.1102230246251565e-15
11
-0.9249998211860655
21
-38.895951599765652
31
1.1102230213164317e-15
0
LINE
5
130
100
AcDbEntity
8
CUTOUTS
100
AcDbLine
10
-7.0250001877546246
20
-45.425001907348658
30
1.1102230246251565e-15
11
-7.0250001877546246
21
45.425001907348673
31
1.1102240834163406e-15
0
LINE
5
131
100
AcDbEntity
8
CUTOUTS
100
AcDbLine
10
-7.0250001877546246
20
45.425001907348673
30
2.2204460492503131e-15
11
-5.6749998301267599
21
45.425001907348673
31
2.2204460492503131e-15
0
LINE
5
132
100
AcDbEntity
8
CUTOUTS
100
AcDbLine
10
-5.6749998301267599
20
45.425001907348673
30
1.1102230246251565e-15
11
-5.6749998301267599
21
-45.425001907348658
31
1.1102219658339725e-15
0
LINE
5
133
100
AcDbEntity
8
CUTOUTS
100
AcDbLine
10
-5.6749998301267599
20
-45.425001907348658
30
0
11
-7.0250001877546246
21
-45.425001907348658
31
0
0
LINE
5
134
100
AcDbEntity
8
CUTOUTS
100
AcDbLine
10
-10.224999818205836
20
-45.425001907348658
30
1.1102230246251565e-15
11
-10.224999818205836
21
45.425001907348673
31
1.1102240834163406e-15
0
LINE
5
135
100
AcDbEntity
8
CUTOUTS
100
AcDbLine
10
-10.224999818205836
20
45.425001907348673
30
1.1102230246251565e-15
11
-8.8749997586011915
21
45.425001907348673
31
1.1102230246251565e-15
0
LINE
5
136
100
AcDbEntity
8
CUTOUTS
100
AcDbLine
10
-8.8749997586011915
20
45.425001907348673
30
1.1102230246251565e-15
11
-8.8749997586011915
21
-45.425001907348658
31
1.1102219658339725e-15
0
LINE
5
137
100
AcDbEntity
8
CUTOUTS
100
AcDbLine
10
-8.8749997586011915
20
-45.425001907348658
30
0
11
-10.224999818205836
21
-45.425001907348658
31
0
0
LINE
5
138
100
AcDbEntity
8
CUTOUTS
100
AcDbLine
10
10.075000342726707
20
30.074991771654467
30
1.1102230246251565e-15
11
10.07500034272671
21
41.425001907348658
31
1.1102231569740538e-15
0
LINE
5
139
100
AcDbEntity
8
CUTOUTS
100
AcDbLine
10
10.075000342726712
20
41.425001907348673
30
1.1102230246251565e-15
11
11.925000002429533
21
41.425001907348673
31
1.1102230246251565e-15
0
LINE
5
13A
100
AcDbEntity
8
CUTOUTS
100
AcDbLine
10
11.925000002429531
20
41.425001907348673
30
0
11
11.925000370099495
21
30.074991771654489
31
-1.3606521959648213e-22
0
LINE
5
13B
100
AcDbEntity
8
CUTOUTS
100
AcDbLine
10
11.925000370099497
20
30.074991771654478
30
1.1102230246251565e-15
11
10.07500034272671
21
30.074991771654467
31
1.1102230246251567e-15
0
LINE
5
13C
100
AcDbEntity
8
CUTOUTS
100
AcDbLine
10
11.925000372529023
20
10.074991473631263
30
1.1102230246251565e-15
11
10.075000342726707
21
10.074991473631263
31
1.1102230246251565e-15
0
LINE
5
13D
100
AcDbEntity
8
CUTOUTS
100
AcDbLine
10
10.075000342726707
20
10.074991473631263
30
1.1102230246251565e-15
11
10.07500034272671
21
19.924991622642871
31
1.1102231569740538e-15
0
LINE
5
13E
100
AcDbEntity
8
CUTOUTS
100
AcDbLine
10
10.075000342726712
20
19.92499162264286
30
1.1102230246251565e-15
11
11.925000372529027
21
19.92499162264285
31
1.1102230246251565e-15
0
LINE
5
13F
100
AcDbEntity
8
CUTOUTS
100
AcDbLine
10
11.925000372529023
20
19.92499162264285
30
0
11
11.925000372529023
21
10.074991473631254
31
-1.3234889800848431e-22
0
LINE
5
140
100
AcDbEntity
8
CUTOUTS
100
AcDbLine
10
11.925000370099488
20
-30.075009122415189
30
1.1102230246251565e-15
11
11.925000002429538
21
-41.425001907348658
31
1.1102228959925752e-15
0
LINE
5
141
100
AcDbEntity
8
CUTOUTS
100
AcDbLine
10
11.92500000242954
20
-41.425001907348651
30
0
11
10.07500034272671
21
-41.425001907348651
31
0
0
LINE
5
142
100
AcDbEntity
8
CUTOUTS
100
AcDbLine
10
10.075000342726707
20
-41.425001907348651
30
1.1102230246251565e-15
11
10.075000342726707
21
-30.075009122415189
31
1.1102231569740545e-15
0
LINE
5
143
100
AcDbEntity
8
CUTOUTS
100
AcDbLine
10
10.075000342726707
20
-30.075009122415189
30
1.1102230246251565e-15
11
11.925000370099488
21
-30.075009122415189
31
1.1102230246251565e-15
0
LINE
5
144
100
AcDbEntity
8
CUTOUTS
100
AcDbLine
10
11.925000372529029
20
-19.925008973403571
30
0
11
10.075000342726703
21
-19.925008973403571
31
-1.2325951644078309e-31
0
LINE
5
145
100
AcDbEntity
8
CUTOUTS
100
AcDbLine
10
10.075000342726703
20
-19.925008973403571
30
0
11
10.075000342726705
21
-10.075008824391958
31
1.3234889718675421e-22
0
LINE
5
146
100
AcDbEntity
8
CUTOUTS
100
AcDbLine
10
10.075000342726707
20
-10.075008824391961
30
1.1102230246251565e-15
11
11.925000372529031
21
-10.075008824391967
31
1.1102230246251563e-15
0
LINE
5
147
100
AcDbEntity
8
CUTOUTS
100
AcDbLine
10
11.925000372529029
20
-10.075008824391967
30
0
11
11.925000372529029
21
-19.925008973403578
31
-1.3234889800848431e-22
0
LINE
5
148
100
AcDbEntity
8
CUTOUTS
100
AcDbLine
10
-0.9249998211860655
20
34.945934904656049
30
1.1102230246251565e-15
11
7.9250003129243849
21
37.895934949359535
31
1.1102230279338814e-15
0
LINE
5
149
100
AcDbEntity
8
CUTOUTS
100
AcDbLine
10
7.9250003129243849
20
37.895934949359528
30
1.1102230246251565e-15
11
7.9250003129243849
21
36.054048802565639
31
1.1102230246251565e-15
0
LINE
5
14A
100
AcDbEntity
8
CUTOUTS
100
AcDbLine
10
7.9250003129243849
20
36.054048802565653
30
1.1102230246251565e-15
11
-0.9249998211860655
21
33.104048757862181
31
1.1102229882292072e-15
0
LINE
5
14B
100
AcDbEntity
8
CUTOUTS
100
AcDbLine
10
-0.9249998211860655
20
33.104048757862181
30
2.2204460492503131e-15
11
-0.9249998211860655
21
34.945934904656056
31
2.2204460823375376e-15
0
LINE
5
14C
100
AcDbEntity
8
PERIMETER
100
AcDbLine
10
6.9250002980232219
20
48.57500190734865
30
1.1102230246251565e-15
11
6.9250002980232219
21
45.575001907348643
31
1.110222991537932e-15
0
LINE
5
14D
100
AcDbEntity
8
PERIMETER
100
AcDbLine
10
6.9250002980232219
20
45.575001907348664
30
1.1102230246251565e-15
11
4.075000253319744
21
45.575001907348678
31
1.1102230246251565e-15
0
LINE
5
14E
100
AcDbEntity
8
PERIMETER
100
AcDbLine
10
4.075000253319744
20
45.575001907348678
30
1.1102230246251565e-15
11
4.075000253319744
21
48.575001907348685
31
1.110223057712381e-15
0
LINE
5
14F
100
AcDbEntity
8
PERIMETER
100
AcDbLine
10
4.075000253319744
20
48.575001907348671
30
1.1102230246251565e-15
11
0.92500020861625454
21
48.57500190734865
31
1.1102230246251563e-15
0
LINE
5
150
100
AcDbEntity
8
PERIMETER
100
AcDbLine
10
0.92500020861625454
20
48.57500190734865
30
1.1102230246251565e-15
11
0.92500020861625454
21
45.575001907348643
31
1.110222991537932e-15
0
LINE
5
151
100
AcDbEntity
8
PERIMETER
100
AcDbLine
10
0.92500020861625454
20
45.575001907348664
30
1.1102230246251565e-15
11
-1.9249998360872256
21
45.575001907348678
31
1.1102230246251565e-15
0
LINE
5
152
100
AcDbEntity
8
PERIMETER
100
AcDbLine
10
-1.9249998360872256
20
45.575001907348678
30
1.1102230246251565e-15
11
-1.9249998360872256
21
48.575001907348671
31
1.110223057712381e-15
0
LINE
5
153
100
AcDbEntity
8
PERIMETER
100
AcDbLine
10
-1.9249998360872256
20
48.57500190734865
30
1.1102230246251565e-15
11
-13.075000000000006
21
48.57500190734865
31
1.1102230246251565e-15
0
LINE
5
154
100
AcDbEntity
8
PERIMETER
100
AcDbLine
10
-13.075000000000006
20
48.57500190734865
30
1.1102230246251565e-15
11
-13.075000000000006
21
-48.575001907348671
31
1.1102230246251569e-15
0
LINE
5
155
100
AcDbEntity
8
PERIMETER
100
AcDbLine
10
-13.075000000000006
20
-48.57500190734865
30
1.1102230246251565e-15
11
-1.9249998360872267
21
-48.57500190734865
31
1.1102230246251565e-15
0
LINE
5
156
100
AcDbEntity
8
PERIMETER
100
AcDbLine
10
-1.9249998360872267
20
-48.57500190734865
30
1.1102230246251565e-15
11
-1.9249998360872278
21
-45.57500190734865
31
1.1102230577123814e-15
0
LINE
5
157
100
AcDbEntity
8
PERIMETER
100
AcDbLine
10
-1.9249998360872278
20
-45.575001907348664
30
1.1102230246251565e-15
11
0.92500020861625454
21
-45.575001907348664
31
1.1102230246251565e-15
0
LINE
5
158
100
AcDbEntity
8
PERIMETER
100
AcDbLine
10
0.92500020861625454
20
-45.575001907348664
30
1.1102230246251565e-15
11
0.92500020861625454
21
-48.575001907348664
31
1.110222991537932e-15
0
LINE
5
159
100
AcDbEntity
8
PERIMETER
100
AcDbLine
10
0.92500020861625454
20
-48.57500190734865
30
1.1102230246251565e-15
11
4.075000253319744
21
-48.57500190734865
31
1.1102230246251567e-15
0
LINE
5
15A
100
AcDbEntity
8
PERIMETER
100
AcDbLine
10
4.075000253319744
20
-48.57500190734865
30
1.1102230246251565e-15
11
4.075000253319744
21
-45.57500190734865
31
1.110223057712381e-15
0
LINE
5
15B
100
AcDbEntity
8
PERIMETER
100
AcDbLine
10
4.075000253319744
20
-45.575001907348664
30
1.1102230246251565e-15
11
6.9250002980232219
21
-45.575001907348664
31
1.1102230246251565e-15
0
LINE
5
15C
100
AcDbEntity
8
PERIMETER
100
AcDbLine
10
6.9250002980232219
20
-45.575001907348664
30
1.1102230246251565e-15
11
6.9250002980232219
21
-48.575001907348664
31
1.110222991537932e-15
0
LINE
5
15D
100
AcDbEntity
8
PERIMETER
100
AcDbLine
10
6.9250002980232219
20
-48.57500190734865
30
1.1102230246251565e-15
11
10.075000342726712
21
-48.57500190734865
31
1.1102230246251567e-15
0
LINE
5
15E
100
AcDbEntity
8
PERIMETER
100
AcDbLine
10
10.075000342726712
20
-48.57500190734865
30
1.1102230246251565e-15
11
10.075000342726712
21
-45.57500190734865
31
1.110223057712381e-15
0
LINE
5
15F
100
AcDbEntity
8
PERIMETER
100
AcDbLine
10
10.075000342726712
20
-45.575001907348664
30
1.1102230246251565e-15
11
13.075000000000008
21
-45.575001907348664
31
1.1102230246251565e-15
0
LINE
5
160
100
AcDbEntity
8
PERIMETER
100
AcDbLine
10
13.075000000000006
20
-45.575001907348664
30
1.1102230246251565e-15
11
13.075000000000001
21
45.575001907348678
31
1.1102230246251583e-15
0
LINE
5
161
100
AcDbEntity
8
PERIMETER
100
AcDbLine
10
13.075000000000001
20
45.575001907348678
30
1.1102230246251565e-15
11
10.075000342726707
21
45.575001907348678
31
1.1102230246251565e-15
0
LINE
5
162
100
AcDbEntity
8
PERIMETER
100
AcDbLine
10
10.075000342726707
20
45.575001907348678
30
1.1102230246251565e-15
11
10.07500034272671
21
48.575001907348685
31
1.1102230577123803e-15
0
LINE
5
163
100
AcDbEntity
8
PERIMETER
100
AcDbLine
10
10.075000342726712
20
48.575001907348671
30
1.1102230246251565e-15
11
6.9250002980232228
21
48.57500190734865
31
1.1102230246251563e-15
0
ENDSEC
0
SECTION
2
OBJECTS
0
DICTIONARY
5
C
100
AcDbDictionary
3
ACAD_GROUP
350
D
3
ACAD_MLINESTYLE
350
17
0
DICTIONARY
5
D
100
AcDbDictionary
0
DICTIONARY
5
1A
330
C
100
AcDbDictionary
0
DICTIONARY
5
17
100
AcDbDictionary
0
ENDSEC
0
EOF
